<svg data-name="Layer 1" viewBox="0 0 147.87 94.19" xmlns="http://www.w3.org/2000/svg">
  <path class="cls-1" fill="#2791d0" transform="translate(-26.06 -34.4)" d="M116.53,90.92V46.17H40.73V45a10.76,10.76,0,0,0-11-10.6,3.53,3.53,0,1,0,0,7.06A3.55,3.55,0,0,1,33.4,45v58.87a10.76,10.76,0,0,0,11,10.6h68.47a3.54,3.54,0,1,0,0-7.07H44.4a3.54,3.54,0,0,1-3.67-3.53V97.39ZM77.41,79.14H90.86V86L77.41,87.15Zm-4.89,8.48L59.07,88.8V79.14H72.52Zm4.89-13.19V66.19H90.86v8.24Zm-4.89,0H59.07V66.19H72.52Zm-18.34,0H40.73V66.19H54.18Zm0,4.71v10L40.73,90.33V79.14Zm55,5.3L95.75,85.62V79.14H109.2Zm0-10H95.75V66.19H109.2Zm0-21.19v8.24H95.75V53.24Zm-18.34,0v8.24H77.41V53.24Zm-18.34,0v8.24H59.07V53.24ZM54.18,61.48H40.73V53.24H54.18Z"/>
  <path class="cls-1" transform="translate(-26.06 -34.4)" d="m55.4 121.53a7.34 7.34 0 1 1-7.33-7.06 7.21 7.21 0 0 1 7.33 7.06z"/>
  <path class="cls-1" transform="translate(-26.06 -34.4)" d="m109.2 121.53a7.34 7.34 0 1 1-7.34-7.06 7.21 7.21 0 0 1 7.34 7.06z"/>
  <path class="cls-1" transform="translate(-26.06 -34.4)" d="M157,72.11c-1.73-2.83-2.75-7.86-3.85-12.34-3.86-12.42-13.09-13.6-21.38-13.6H119.48v68.26H126c0-.35-.06-.69-.06-1.05,0-10,9.53-18.11,18.18-18.11s18,8.13,18,18.11c0,.35,0,.68-.06,1h3c7.55.47,8.81-6.05,8.81-6.05V83.59Zm-33.95.24V53.48H136c3.29,0,6.64.24,8.81,6.61,2.2,6.13,1.91,7.63,3.77,12.26Z"/>
  <path class="cls-1" transform="translate(-26.06 -34.4)" d="m144.12 100.49a12.9 12.9 0 1 0 12.88 12.89 12.9 12.9 0 0 0-12.88-12.89z"/>
</svg>
