<svg enable-background="new 0 0 512 512" version="1.1" viewBox="0 0 512 512" xml:space="preserve" xmlns="http://www.w3.org/2000/svg">
	<path fill:"#010101" d="m256 77.8c12.3 11.7 24.3 21.1 36.4 28.4 24 14.4 47 21.3 70.5 21.3 1.4 0 2.7 0 4.1-0.1 9.5-0.3 18.7-2 27.8-5 2.5 25.5 2.4 50.7-0.1 75-3.1 30-10.2 59.6-20.9 88.2-12.2 32.4-29 62.1-50.1 88.2-19 23.6-41.7 44.8-67.7 63.1-26-18.3-48.8-39.5-67.7-63.1-21.1-26.2-37.9-55.8-50.1-88.2-10.7-28.6-17.8-58.2-20.9-88.2-2.5-24.3-2.6-49.4-0.1-75 9 3 18.2 4.7 27.8 5 1.4 0 2.8 0.1 4.1 0.1 23.5 0 46.5-7 70.5-21.3 12.1-7.4 24.1-16.7 36.4-28.4m0-17.8c-12.9 13.4-27.2 26-43 35.4-19.8 11.9-40.9 19.5-64 19.5-1.2 0-2.4 0-3.7-0.1-13.4-0.5-26.1-3.9-38.8-10.7-8.8 64.1-2.8 125.8 19.8 185.7 25.7 68.3 70 122.2 129.7 162.2 59.7-40 104-93.9 129.7-162.1 22.5-59.9 28.6-121.6 19.8-185.7-12.7 6.8-25.4 10.2-38.8 10.7-1.2 0-2.5 0.1-3.7 0.1-23.1 0-44.2-7.7-64-19.5-15.8-9.5-30.1-22.1-43-35.5z"/>
	<path fill:"#010101" d="m128.6 139.1c5.2 0.9 10.5 1.5 15.9 1.7 1.5 0.1 3 0.1 4.6 0.1 5.4 0 10.8-0.3 16.2-1v12.6c-5.4 0.6-10.8 0.9-16.2 0.9-1.7 0-3.3 0-5-0.1-1.1 0-2.3-0.1-3.4-0.2-0.3 14.4 0.3 28.7 1.7 42.5 2.9 27.9 9.4 55.4 19.4 82 11.3 29.9 26.8 57.3 46.2 81.4 13.8 17.2 30 33.1 48 47.4v15.8c-22-16.4-41.4-35-57.9-55.4-20.2-25.1-36.4-53.7-48.1-84.8-10.4-27.6-17.2-56.2-20.2-85.1-2-18.8-2.4-38.2-1.2-57.8z"/>
	<path fill:"#010101" d="m364.1 276.3h-13.4c9.7-26.1 16.1-53.2 18.9-80.6 1.4-13.8 2-28.1 1.7-42.5-1.1 0.1-2.3 0.1-3.4 0.2-1.7 0.1-3.3 0.1-5 0.1-28.2 0-55.5-8.2-83.5-24.9-5.7-3.4-11.2-7.1-16.7-11.2v-15.9c7.7 6.3 15.4 11.7 23.2 16.4 26 15.6 51.2 23.1 77 23.1 1.5 0 3 0 4.6-0.1 5.4-0.2 10.7-0.8 15.9-1.7 1.1 19.7 0.7 39-1.2 57.8-2.8 26.8-8.9 53.5-18.1 79.3z"/>
	<path fill:"#010101" d="m199.5 238.8v78.4c0 4 3.3 7.3 7.3 7.3h98.4c4 0 7.3-3.3 7.3-7.3v-78.4c0-4-3.3-7.3-7.3-7.3h-98.4c-4 0-7.3 3.3-7.3 7.3zm49.9 33.1c-3.2-2.1-5.3-5.7-5.3-9.8 0-6.5 5.3-11.7 11.8-11.8 6.6-0.1 12 5.2 12 11.8 0 4.1-2.1 7.7-5.3 9.8-0.8 0.6-1.2 1.6-1 2.6l2.8 20.6c0.6 2.3-1.1 4.5-3.5 4.5h-9.8c-2.4 0-4.1-2.3-3.5-4.5l2.8-20.6c0.2-1-0.2-2.1-1-2.6z"/>
	<path fill:"#010101" d="m275.7 225.2v-41.1c0-5.2-2-10.1-5.8-13.8-3.7-3.7-8.7-5.7-13.9-5.7-5.3 0-10.2 2-13.9 5.7s-5.8 8.6-5.8 13.8v41.1h-19.9v-41.1c0-21.7 17.7-39.2 39.6-39.2 21.8 0 39.6 17.6 39.6 39.2v41.1h-19.9z"/>
	<path fill:"#010101" d="m-1049.8 161.1h73.9c4.1 0 7.4-3.3 7.4-7.4s-3.3-7.4-7.4-7.4h-73.9c-4.1 0-7.4 3.3-7.4 7.4s3.3 7.4 7.4 7.4z"/>
	<path fill:"#010101" d="m-1008.8 215.7c0-4.1-3.3-7.4-7.4-7.4h-62.6c-4.1 0-7.4 3.3-7.4 7.4s3.3 7.4 7.4 7.4h62.6c4.1 0 7.4-3.3 7.4-7.4z"/>
	<path fill:"#010101" d="m-1061.9 272.1c-4.1 0-7.4 3.3-7.4 7.4s3.3 7.4 7.4 7.4h32.3c4.1 0 7.4-3.3 7.4-7.4s-3.3-7.4-7.4-7.4h-32.3z"/>
	<path fill:"#010101" d="m-958.5 290h94.4c0.4 0 0.9 0 1.3-0.1 0.1 0 0.3-0.1 0.4-0.1 0.3-0.1 0.5-0.1 0.8-0.2 0.2-0.1 0.3-0.1 0.5-0.2s0.5-0.2 0.7-0.3 0.3-0.2 0.5-0.3c0.1-0.1 0.2-0.1 0.4-0.2l45.4-34.9c1.8-1.4 2.8-3.5 2.9-5.6l10.3-86.8c0.3-1.3 0.3-2.8-0.2-4.1-1-3-3.8-5-7-5l-93.9-0.4c-1.6 0-3.2 0.5-4.5 1.5l-45.9 35.4c-0.1 0-0.1 0.1-0.2 0.2l-0.6 0.6-0.4 0.4c-0.2 0.2-0.3 0.5-0.5 0.7-0.1 0.2-0.2 0.3-0.3 0.4-0.1 0.3-0.3 0.5-0.4 0.8-0.1 0.1-0.1 0.3-0.2 0.4-0.1 0.3-0.1 0.6-0.2 0.9 0 0.2-0.1 0.3-0.1 0.5l-10.5 88.3c-0.2 2.1 0.4 4.2 1.8 5.8 1.4 1.4 3.4 2.3 5.5 2.3zm17-88.3h79.5l-8.7 73.5h-79.5l8.7-73.5zm94.8-3.4l28.9-22.3-8 67.7-29 22.3 8.1-67.7zm-53-31.9l69.8 0.3-26.3 20.2h-70.1l26.6-20.5z"/>
	<path fill:"#010101" d="m-696.6 346.7c-12 0-21.7 9.7-21.7 21.7s9.7 21.7 21.7 21.7 21.7-9.7 21.7-21.7-9.7-21.7-21.7-21.7z"/>
	<path fill:"#010101" d="m-975.9 346.7c-12 0-21.7 9.7-21.7 21.7s9.7 21.7 21.7 21.7 21.7-9.7 21.7-21.7-9.7-21.7-21.7-21.7z"/>
	<path fill:"#010101" d="m-625.4 276.4l-40-88.3c-1.2-2.6-3.8-4.3-6.7-4.3h-81.5v-56.2c0-18.4-14.1-33.4-31.5-33.4h-227.3c-14.6 0-27.4 10.9-30.6 25.9-0.8 4 1.7 7.9 5.7 8.8 4 0.8 7.9-1.7 8.8-5.7 1.7-8.2 8.5-14.2 16.1-14.2h227.3c9.2 0 16.7 8.3 16.7 18.6v233.5h-158.6c-3.6-23.7-24.1-41.9-48.8-41.9s-45.2 18.2-48.8 41.9h-19.3c-9.1 0-16.6-8.2-16.7-18.4l1.5-15.4c0.4-4.1-2.6-7.7-6.6-8.1-4.1-0.4-7.7 2.6-8.1 6.6l-1.6 15.8v0.7c0 18.5 14.1 33.5 31.5 33.5h19.3c3.6 23.7 24.1 41.9 48.8 41.9s45.2-18.2 48.8-41.9h181.7c3.6 23.7 24.1 41.9 48.8 41.9s45.2-18.2 48.8-41.9h15.7c4.1 0 7.4-3.3 7.4-7.4v-89c-0.1-1-0.4-2-0.8-3zm-18.4-4.7c-38.3-5.1-69.7-34.9-76.3-73.1h43.1l33.2 73.1zm-332.1 131.3c-19 0-34.5-15.5-34.5-34.5s15.5-34.5 34.5-34.5 34.5 15.5 34.5 34.5-15.5 34.5-34.5 34.5zm279.3 0c-19 0-34.5-15.5-34.5-34.5s15.5-34.5 34.5-34.5 34.5 15.5 34.5 34.5-15.5 34.5-34.5 34.5zm48.8-41.9c-3.6-23.7-24.1-41.9-48.8-41.9s-45.2 18.2-48.8 41.9h-8.3v-162.5h18.6c7.1 47.8 47.2 84.9 95.5 88.4v21.2h-7.7c-4.5 0-8.2 5-8.2 11.2v4.6c0 6.2 3.7 11.2 8.2 11.2h7.7v25.8h-8.2z"/>
	<path fill:"#010101" d="m-377.1 289.5c0-0.1-0.1-0.1-0.1-0.2-0.2-0.3-0.5-0.6-0.7-0.8l-0.3-0.3c-0.3-0.3-0.7-0.6-1-0.8 0 0-0.1 0-0.1-0.1-0.3-0.2-0.6-0.4-1-0.5-0.1 0-0.1 0-0.2-0.1s-0.3-0.1-0.4-0.1c-0.3-0.1-0.6-0.2-0.9-0.3-0.1 0-0.3-0.1-0.4-0.1-0.4-0.1-0.8-0.1-1.1-0.1h-0.2c-0.4 0-0.9 0.1-1.3 0.2-0.1 0-0.3 0.1-0.4 0.1-0.3 0.1-0.6 0.2-0.9 0.3-0.1 0.1-0.3 0.1-0.4 0.2-0.4 0.2-0.8 0.4-1.2 0.7l-0.1 0.1c-0.3 0.2-0.5 0.4-0.8 0.6l-16.7 15.8c-3.1 2.9-3.2 7.8-0.3 10.9s7.8 3.2 10.9 0.3l3.7-3.5v61c0 4.3 3.5 7.7 7.7 7.7 4.3 0 7.7-3.5 7.7-7.7v-54.7l2.7 3.8c1.5 2.1 3.9 3.3 6.3 3.3 1.5 0 3.1-0.5 4.5-1.4 3.5-2.5 4.3-7.3 1.8-10.8l-16.8-23.5z"/>
	<path fill:"#010101" d="m-438.4 273.7c0-0.1-0.1-0.1-0.1-0.2-0.2-0.3-0.5-0.6-0.7-0.8l-0.3-0.3c-0.3-0.3-0.7-0.5-1-0.8l-0.1-0.1c-0.3-0.2-0.6-0.4-1-0.5-0.1 0-0.1 0-0.2-0.1s-0.3-0.1-0.4-0.1c-0.3-0.1-0.6-0.2-0.9-0.2-0.1 0-0.3-0.1-0.4-0.1-0.4-0.1-0.7-0.1-1.1-0.1h-0.2c-0.4 0-0.9 0.1-1.3 0.2-0.1 0-0.3 0.1-0.4 0.1-0.3 0.1-0.6 0.2-0.9 0.3-0.1 0.1-0.3 0.1-0.4 0.2-0.4 0.2-0.8 0.4-1.2 0.7l-0.1 0.1c-0.3 0.2-0.5 0.4-0.8 0.6l-16.7 15.8c-3.1 2.9-3.2 7.8-0.3 10.9s7.8 3.2 10.9 0.3l3.7-3.5v61c0 4.3 3.5 7.7 7.7 7.7 4.3 0 7.7-3.5 7.7-7.7v-54.7l2.7 3.8c1.5 2.1 3.9 3.3 6.3 3.3 1.5 0 3.1-0.5 4.5-1.4 3.5-2.5 4.3-7.3 1.8-10.8l-16.8-23.6z"/>
	<path fill:"#010101" d="m-138.9 290.2c-1.9-1.5-4.4-2-6.7-1.4l-109.7 28.7c-3.4 0.9-5.8 4-5.8 7.5v65.6c0 2.5 1.2 4.8 3.1 6.2 1.3 1 3 1.5 4.6 1.5 0.8 0 1.5-0.1 2.3-0.3l109.7-33.6c3.3-1 5.5-4 5.5-7.4v-60.8c0-2.3-1.1-4.5-3-6zm-12.4 61.2l-94.2 28.8v-49.2l94.2-24.6v45z"/>
	<path fill:"#010101" d="m-299.7 207.3c-4.3 0-7.7 3.5-7.7 7.7v173.7c0 4.3 3.5 7.7 7.7 7.7 4.3 0 7.7-3.5 7.7-7.7v-173.7c0-4.3-3.5-7.7-7.7-7.7z"/>
	<path fill:"#010101" d="m-108.4 113.7l-3.1-0.9c-0.2-0.1-0.3-0.1-0.5-0.1l-69-19.5c-0.1 0-0.1 0-0.2-0.1l-58.4-16.5c-0.2 0-0.4-0.1-0.5-0.2l-57.5-16.2c-1.4-0.4-2.8-0.4-4.2 0l-185.7 52.4c-0.2 0-0.4 0.1-0.5 0.2l-3 0.9c-3.3 0.9-5.6 4-5.6 7.4v267.7c0 3.4 2.3 6.5 5.6 7.4l189.3 55.4c0.7 0.2 1.4 0.3 2.2 0.3 0.7 0 1.5-0.1 2.2-0.3l189.3-55.4c3.3-1 5.6-4 5.6-7.4v-267.7c-0.3-3.4-2.6-6.5-6-7.4zm-101.3-12.5l-152.2 48.5c-0.1 0-0.2 0.1-0.4 0.1-0.2 0.1-0.5 0.2-0.7 0.3-0.1 0.1-0.3 0.1-0.4 0.2s-0.2 0.1-0.3 0.2c-0.2 0.1-0.4 0.3-0.6 0.4-0.1 0.1-0.2 0.2-0.4 0.3l-0.3 0.3-0.5 0.5-0.3 0.3c-0.1 0.1-0.1 0.2-0.2 0.3-0.1 0.2-0.3 0.4-0.4 0.6-0.1 0.1-0.2 0.2-0.2 0.4-0.1 0.1-0.1 0.2-0.1 0.3-0.1 0.2-0.2 0.5-0.3 0.7s-0.2 0.5-0.2 0.7c-0.1 0.2-0.1 0.5-0.1 0.7s-0.1 0.3-0.1 0.5v0.4 0.3 56.6c0 3.6-1.7 7-4.6 9.1-2.9 2.2-6.6 2.8-10.1 1.7-15.4-4.9-25.8-19-25.8-35.2v-44.1l166.2-52.9 32 8.8zm27.1 7.6l40.7 11.5-157.8 46.2-33.3-9.8 150.4-47.9zm-117.1-33l31.1 8.8-148.9 47.4-40-11.7 157.8-44.5zm0 360.4l-181.6-53.2v-253.5l58 17v42.8c0 23 14.7 43 36.6 49.9 2.7 0.8 5.4 1.3 8.1 1.3 5.6 0 11.1-1.8 15.8-5.2 7-5.1 11-13 11-21.6v-46.3l49.9 14.6c0.7 0.2 1.4 0.3 2.2 0.3 0.7 0 1.5-0.1 2.2-0.3l179.4-52.5v253.5l-181.6 53.2z"/>
</svg>
