<svg data-name="Layer 1" viewBox="0 0 1495.46 391.96" xmlns="http://www.w3.org/2000/svg">
  <path fill:"#010101" transform="translate(-25.29 -60.02)" d="M1367.45,77.76a207,207,0,0,0,36.45,28.35c24,14.35,47,21.33,70.5,21.33,1.36,0,2.75,0,4.11-.07a97.06,97.06,0,0,0,27.8-5,375.35,375.35,0,0,1-.11,75,355.14,355.14,0,0,1-20.9,88.18,320.34,320.34,0,0,1-50.1,88.23,332.12,332.12,0,0,1-67.75,63.07,332.06,332.06,0,0,1-67.74-63.07,320.08,320.08,0,0,1-50.1-88.23,354.7,354.7,0,0,1-20.9-88.18,375.35,375.35,0,0,1-.11-75,97.05,97.05,0,0,0,27.79,5c1.37,0,2.75.07,4.12.07,23.46,0,46.52-7,70.5-21.33a206.59,206.59,0,0,0,36.44-28.35m0-17.74c-12.88,13.41-27.2,25.95-43,35.39-19.82,11.86-40.88,19.53-64,19.53-1.22,0-2.44,0-3.67-.06a87.62,87.62,0,0,1-38.8-10.72c-8.82,64.06-2.76,125.84,19.76,185.7,25.67,68.2,69.94,122.16,129.65,162.12,59.72-40,104-93.92,129.66-162.12,22.52-59.86,28.58-121.64,19.76-185.7a87.62,87.62,0,0,1-38.8,10.72c-1.23,0-2.45.06-3.67.06-23.11,0-44.17-7.67-64-19.53-15.76-9.44-30.07-22-43-35.39Z"/>
  <path fill:"#010101" transform="translate(-25.29 -60.02)" d="M1240,139.08a112.13,112.13,0,0,0,15.94,1.7c1.51.05,3,.08,4.56.08a130.49,130.49,0,0,0,16.17-1v12.6a145.25,145.25,0,0,1-16.17.91c-1.66,0-3.34,0-5-.09-1.14,0-2.29-.09-3.43-.17a341.22,341.22,0,0,0,1.71,42.54,330.06,330.06,0,0,0,19.45,82A295.33,295.33,0,0,0,1319.41,359a301.52,301.52,0,0,0,48,47.39h0v15.81h0a317.35,317.35,0,0,1-57.89-55.4,307.63,307.63,0,0,1-48.14-84.8,343.07,343.07,0,0,1-20.18-85.09A358.61,358.61,0,0,1,1240,139.08Z"/>
  <path fill:"#010101" transform="translate(-25.29 -60.02)" d="M1475.6,276.25h-13.4a330.26,330.26,0,0,0,18.93-80.61,343.15,343.15,0,0,0,1.71-42.54c-1.14.08-2.29.13-3.44.17-1.66.06-3.34.09-5,.09-28.19,0-55.51-8.16-83.53-24.93-5.65-3.39-11.2-7.1-16.72-11.2v-15.9a197,197,0,0,0,23.24,16.4c26,15.56,51.19,23.13,77,23.13,1.51,0,3,0,4.56-.08a111.84,111.84,0,0,0,15.93-1.7,357.48,357.48,0,0,1-1.22,57.85A342.33,342.33,0,0,1,1475.6,276.25Z"/>
  <path fill:"#010101" transform="translate(-25.29 -60.02)" d="m1310.9 238.79v78.43a7.3 7.3 0 0 0 7.33 7.27h98.39a7.3 7.3 0 0 0 7.33 -7.27v-78.43a7.29 7.29 0 0 0 -7.33 -7.26h-98.39a7.29 7.29 0 0 0 -7.33 7.26zm49.92 33.07a11.87 11.87 0 1 1 13.2 0 2.36 2.36 0 0 0 -1 2.57l2.79 20.57a3.61 3.61 0 0 1 -3.52 4.54h-9.8a3.61 3.61 0 0 1 -3.52 -4.54l2.79-20.57a2.36 2.36 0 0 0 -0.94 -2.57z"/>
  <path fill:"#010101" transform="translate(-25.29 -60.02)" d="M1387.12,225.24V184.09a19.32,19.32,0,0,0-5.76-13.79,19.79,19.79,0,0,0-27.81,0,19.28,19.28,0,0,0-5.76,13.79v41.15H1327.9V184.09a39.4,39.4,0,0,1,39.55-39.23h0A39.4,39.4,0,0,1,1407,184.09v41.15Z"/>
  <path fill:"#010101" transform="translate(-25.29 -60.02)" d="m61.61 161.08h74a7.4 7.4 0 0 0 0 -14.8h-74a7.4 7.4 0 0 0 0 14.8z"/>
  <path fill:"#010101" transform="translate(-25.29 -60.02)" d="m102.66 215.67a7.39 7.39 0 0 0 -7.39 -7.4h-62.58a7.4 7.4 0 0 0 0 14.8h62.58a7.4 7.4 0 0 0 7.39 -7.4z"/>
  <path fill:"#010101" transform="translate(-25.29 -60.02)" d="M49.54,272.09a7.4,7.4,0,0,0,0,14.79H81.83a7.4,7.4,0,0,0,0-14.79Z"/>
  <path fill:"#010101" transform="translate(-25.29 -60.02)" d="M152.93,290h94.36a6.85,6.85,0,0,0,1.28-.12c.15,0,.28-.07.42-.1a6.89,6.89,0,0,0,.81-.23,4.1,4.1,0,0,0,.48-.21A5.94,5.94,0,0,0,251,289a4.9,4.9,0,0,0,.48-.31c.12-.08.25-.14.37-.23l45.39-34.91a7.36,7.36,0,0,0,2.87-5.57l10.28-86.8a7.36,7.36,0,0,0-7.12-9.18l-93.91-.45h0a7.37,7.37,0,0,0-4.51,1.54L158.9,188.47c-.06,0-.11.1-.17.15q-.33.28-.63.6c-.13.14-.26.26-.38.41a6.76,6.76,0,0,0-.49.7c-.1.15-.21.29-.29.44a6.79,6.79,0,0,0-.37.83c-.06.15-.14.29-.19.44a8.06,8.06,0,0,0-.2.88c0,.16-.08.32-.1.49v0l-10.48,88.27a7.38,7.38,0,0,0,7.34,8.27ZM170,201.72h79.45l-8.72,73.48H161.26Zm94.76-3.43L293.68,176l-8,67.72L256.7,266Zm-53-31.93,69.79.33-26.32,20.24H185.12Z"/>
  <path fill:"#010101" transform="translate(-25.29 -60.02)" d="m414.84 346.68a21.71 21.71 0 1 0 21.71 21.71 21.74 21.74 0 0 0 -21.71 -21.71z"/>
  <path fill:"#010101" transform="translate(-25.29 -60.02)" d="m135.56 346.68a21.71 21.71 0 1 0 21.7 21.71 21.74 21.74 0 0 0 -21.7 -21.71z"/>
  <path fill:"#010101" transform="translate(-25.29 -60.02)" d="M486.05,276.43,446,188.16a7.39,7.39,0,0,0-6.73-4.35H357.76V127.57c0-18.41-14.13-33.39-31.51-33.39H99c-14.58,0-27.45,10.89-30.62,25.89a7.4,7.4,0,1,0,14.48,3.06C84.56,114.92,91.35,109,99,109H326.25c9.22,0,16.72,8.35,16.72,18.6V361.09H184.33a49.33,49.33,0,0,0-97.55,0H67.52c-9.12,0-16.55-8.21-16.72-18.37l1.54-15.43a7.4,7.4,0,1,0-14.72-1.47L36,341.65c0,.25,0,.49,0,.73,0,18.48,14.13,33.51,31.51,33.51H86.78a49.33,49.33,0,0,0,97.55,0H366.06a49.34,49.34,0,0,0,97.56,0h15.69a7.4,7.4,0,0,0,7.4-7.4v-89A7.31,7.31,0,0,0,486.05,276.43Zm-18.38-4.71c-38.33-5.09-69.67-34.89-76.3-73.11H434.5ZM135.56,403a34.54,34.54,0,1,1,34.53-34.54A34.58,34.58,0,0,1,135.56,403Zm279.28,0a34.54,34.54,0,1,1,34.54-34.54A34.59,34.59,0,0,1,414.84,403Zm48.78-41.94a49.33,49.33,0,0,0-97.55,0h-8.31V198.61H376.4c7.08,47.83,47.22,84.92,95.52,88.39v21.23h-7.73c-4.5,0-8.16,5-8.16,11.22V324c0,6.19,3.66,11.22,8.16,11.22h7.73v25.83Z"/>
  <path fill:"#010101" transform="translate(-25.29 -60.02)" d="M734.4,289.54c0-.06-.1-.11-.15-.17a8.08,8.08,0,0,0-.72-.83l-.29-.28a7.21,7.21,0,0,0-1-.79l-.1-.06a8.82,8.82,0,0,0-1-.51l-.2-.06-.39-.14a8,8,0,0,0-.93-.25l-.42-.08a6.25,6.25,0,0,0-1.14-.08h-.2a8.09,8.09,0,0,0-1.3.15l-.4.1c-.32.09-.64.19-.95.31l-.38.16a7.2,7.2,0,0,0-1.21.68h0a.46.46,0,0,1-.07.07,6.53,6.53,0,0,0-.77.62L706,304.18a7.74,7.74,0,0,0,10.63,11.26l3.67-3.48V373a7.74,7.74,0,1,0,15.48,0V318.35l2.67,3.78a7.74,7.74,0,1,0,12.64-8.94Z"/>
  <path fill:"#010101" transform="translate(-25.29 -60.02)" d="M673.06,273.74c0-.06-.1-.11-.15-.17a8.08,8.08,0,0,0-.72-.83l-.29-.28a7.06,7.06,0,0,0-1-.78l-.12-.08a10.72,10.72,0,0,0-1-.5l-.19-.06-.41-.14a7.36,7.36,0,0,0-.92-.25l-.42-.08a8.29,8.29,0,0,0-1.11-.08h-.23a8.09,8.09,0,0,0-1.3.15l-.41.11a7.21,7.21,0,0,0-.93.3l-.39.16a7.2,7.2,0,0,0-1.21.68h0l-.08.07a8.94,8.94,0,0,0-.76.62l-16.73,15.8a7.74,7.74,0,0,0,10.63,11.26l3.67-3.48v61a7.74,7.74,0,1,0,15.48,0V302.55l2.67,3.78a7.74,7.74,0,1,0,12.64-8.94Z"/>
  <path fill:"#010101" transform="translate(-25.29 -60.02)" d="M972.59,290.21a7.69,7.69,0,0,0-6.68-1.36L856.24,317.54a7.74,7.74,0,0,0-5.78,7.49v65.64a7.73,7.73,0,0,0,7.74,7.74,7.94,7.94,0,0,0,2.26-.34l109.67-33.58a7.74,7.74,0,0,0,5.47-7.4V296.33A7.73,7.73,0,0,0,972.59,290.21Zm-12.46,61.16-94.19,28.84V331l94.19-24.64Z"/>
  <path fill:"#010101" transform="translate(-25.29 -60.02)" d="M811.73,207.27A7.74,7.74,0,0,0,804,215v173.7a7.74,7.74,0,1,0,15.48,0V215A7.75,7.75,0,0,0,811.73,207.27Z"/>
  <path fill:"#010101" transform="translate(-25.29 -60.02)" d="M1003.1,113.7l-3.06-.87-.51-.14L930.44,93.2l-.18,0-58.4-16.47a5.26,5.26,0,0,0-.53-.15l-57.5-16.22a7.68,7.68,0,0,0-4.2,0L624,112.68a5.7,5.7,0,0,0-.55.16l-3,.86a7.73,7.73,0,0,0-5.64,7.44V388.81a7.74,7.74,0,0,0,5.56,7.42l189.27,55.44a7.79,7.79,0,0,0,4.35,0l189.27-55.44a7.72,7.72,0,0,0,5.56-7.42V121.14A7.73,7.73,0,0,0,1003.1,113.7ZM901.78,101.2,749.62,149.68c-.12,0-.23.1-.35.14l-.68.29-.39.18-.3.2a5.72,5.72,0,0,0-.57.39c-.12.09-.25.16-.36.26s-.18.18-.27.26-.31.31-.46.47-.23.22-.32.34-.13.2-.2.29-.26.39-.38.59-.18.25-.25.38-.08.2-.12.3a6,6,0,0,0-.28.7,6.67,6.67,0,0,0-.23.72,5.55,5.55,0,0,0-.13.71,3.86,3.86,0,0,0-.09.49c0,.12,0,.24,0,.37s0,.19,0,.29v56.59a11.33,11.33,0,0,1-14.73,10.8,36.73,36.73,0,0,1-25.78-35.16V145.16L869.92,92.21Zm27,7.62,40.66,11.47L811.73,166.5l-33.32-9.76Zm-117.09-33,31.14,8.78L694,132l-40-11.72Zm0,360.38L630.2,383V129.45l58,17v42.83a52.14,52.14,0,0,0,36.61,49.92,27,27,0,0,0,8.14,1.27,26.86,26.86,0,0,0,26.72-26.83V167.38L809.55,182a7.79,7.79,0,0,0,4.35,0l179.36-52.54V383Z"/>
</svg>
