<svg enable-background="new 0 0 512.898 512.898" version="1.1" viewBox="0 0 512.898 512.898" xml:space="preserve" xmlns="http://www.w3.org/2000/svg">
	<g transform="translate(1 1)">
		<path d="m88.825 349.76c-9.881 0-17.965 8.084-17.965 17.965s8.084 17.965 17.965 17.965 17.965-8.084 17.965-17.965-8.085-17.965-17.965-17.965z"/>
		<path d="m403.21 349.76c-9.881 0-17.965 8.084-17.965 17.965s8.084 17.965 17.965 17.965 17.965-8.084 17.965-17.965-8.085-17.965-17.965-17.965z"/>
		<path d="m503.81 203.35l-78.147-86.232c-6.288-6.288-14.372-9.881-22.456-9.881h-82.639c-14.372 0-25.151 10.779-25.151 24.253v137.43h-53.895v-26.947h26.947c5.389 0 8.982-3.593 8.982-8.982 0-5.39-3.593-8.982-8.982-8.982h-26.947v-17.965h26.947c5.389 0 8.982-3.593 8.982-8.982s-3.593-8.982-8.982-8.982h-26.947v-17.965h26.947c5.389 0 8.982-3.593 8.982-8.982s-3.593-8.982-8.982-8.982h-26.947v-17.965h26.947c5.389 0 8.982-3.593 8.982-8.982s-3.593-8.982-8.982-8.982h-26.947v-26.951c0-5.39-3.593-8.982-8.982-8.982-5.39 0-8.982 3.593-8.982 8.982v26.947h-170.67v-26.947c0-5.39-3.593-8.982-8.982-8.982s-8.982 3.593-8.982 8.982v26.947h-26.949c-5.39 0-8.982 3.593-8.982 8.982s3.593 8.982 8.982 8.982h26.948v17.965h-26.948c-5.39 0-8.982 3.593-8.982 8.982s3.593 8.982 8.982 8.982h26.948v17.965h-26.948c-5.39 0-8.982 3.593-8.982 8.982 0 5.39 3.593 8.982 8.982 8.982h26.948v17.965h-26.948c-5.39 0-8.982 3.593-8.982 8.982s3.593 8.982 8.982 8.982h26.948v26.947h-35.93v86.232c0 11.677 9.881 21.558 21.558 21.558h6.024c4.289 30.689 30.266 53.895 62.243 53.895s57.953-23.205 62.243-53.895h189.9c4.289 30.689 30.266 53.895 62.243 53.895s57.953-23.205 62.243-53.895h23.989c11.677 0 21.558-9.881 22.456-20.66v-132.04c-1e-3 -8.081-2.696-15.267-8.085-20.656zm-100.6-78.147c2.695 0 6.288 1.796 8.982 3.593l77.249 86.232h-131.14v-89.825h44.913zm-350.32 8.982h170.67v17.965h-170.67v-17.965zm0 35.93h170.67v17.965h-170.67v-17.965zm0 35.93h170.67v17.965h-170.67v-17.965zm0 35.929h170.67v26.947h-170.67v-26.947zm35.93 170.67c-25.151 0-44.912-19.761-44.912-44.912s19.761-44.912 44.912-44.912 44.912 19.761 44.912 44.912-19.762 44.912-44.912 44.912zm314.39 0c-25.151 0-44.912-19.761-44.912-44.912s19.761-44.912 44.912-44.912 44.912 19.761 44.912 44.912-19.762 44.912-44.912 44.912zm86.231-53.895h-23.989c-4.289-30.689-30.266-53.895-62.243-53.895-0.146 0-0.288 0.01-0.434 0.011-0.155-1e-3 -0.309-0.011-0.465-0.011-31.439 0-57.488 23.354-61.979 53.895h-189.26c-4.022-28.778-27.117-50.964-56.346-53.617-0.212-0.02-0.427-0.03-0.641-0.048-0.737-0.06-1.474-0.12-2.219-0.155-1.007-0.048-2.019-0.075-3.038-0.075s-2.031 0.027-3.038 0.075c-0.745 0.034-1.482 0.095-2.219 0.155-0.213 0.018-0.428 0.028-0.641 0.048-29.229 2.653-52.324 24.839-56.346 53.617h-6.024c-1.797 0-3.593-1.796-3.593-3.593v-68.267h296.42v-155.4c0-3.593 2.695-6.288 7.186-6.288h19.761v92.519c0 8.084 7.186 15.27 15.27 15.27h137.43v26.947h-44.912c-5.389 0-8.982 3.593-8.982 8.982s3.593 8.982 8.982 8.982h44.912v77.249c2e-3 1.799-1.794 3.595-3.591 3.595z"/>
	</g>
</svg>
