<svg enable-background="new 0 0 512 512" version="1.1" viewBox="0 0 512 512" xml:space="preserve" xmlns="http://www.w3.org/2000/svg">
	<path d="m425.95 89.021c-39.087-56.57-101.03-89.021-169.94-89.021s-130.86 32.451-169.94 89.021c-38.895 56.284-47.876 127.54-24.072 190.5 6.367 17.192 16.488 33.895 30.01 49.547l150.38 176.63c3.401 3.998 8.384 6.302 13.629 6.302s10.228-2.303 13.629-6.302l150.34-176.59c13.582-15.742 23.69-32.427 30.004-49.481 23.852-63.069 14.871-134.33-24.024-190.61zm-9.5 178.07c-4.869 13.158-12.818 26.167-23.613 38.68-0.03 0.03-0.06 0.06-0.084 0.096l-136.75 160.62-136.83-160.72c-10.789-12.502-18.738-25.51-23.655-38.794-19.686-52.065-12.215-110.98 19.991-157.59 32.307-46.76 83.519-73.578 140.5-73.578 56.976 0 108.18 26.817 140.49 73.578 32.212 46.611 39.689 105.53 19.955 157.71z"/>
	<path d="m256.01 106.22c-55.276 0-100.25 44.97-100.25 100.25s44.97 100.25 100.25 100.25 100.25-44.97 100.25-100.25c0-55.276-44.976-100.25-100.25-100.25zm0 164.7c-35.536 0-64.448-28.912-64.448-64.448s28.912-64.448 64.448-64.448 64.448 28.912 64.448 64.448-28.912 64.448-64.448 64.448z"/>
</svg>
