<svg enable-background="new 0 0 57 57" version="1.1" viewBox="0 0 57 57" xml:space="preserve" xmlns="http://www.w3.org/2000/svg">
	<path d="M40.5,23V11.601C40.5,5.204,34.893,0,28,0S15.5,5.204,15.5,11.601V23h-9v26v8h44v-8V23H40.5z M17.5,11.601   C17.5,6.307,22.21,2,28,2s10.5,4.307,10.5,9.601V23h-21V11.601z M48.5,55h-40v-4h40V55z M8.5,49V25h7h25h8v24H8.5z"/>
	<path d="m28.5 31c-2.206 0-4 1.794-4 4v6c0 2.206 1.794 4 4 4s4-1.794 4-4v-6c0-2.206-1.794-4-4-4zm2 10c0 1.103-0.897 2-2 2s-2-0.897-2-2v-6c0-1.103 0.897-2 2-2s2 0.897 2 2v6z"/>
</svg>
